<svg
    xmlns="http://www.w3.org/2000/svg"
    width="26"
    height="26"
    viewBox="0 0 26 26"
    fill="none"
    >
    <path
        d="M13.0011 9.87492C12.1723 9.87492 11.3775 10.2042 10.7914 10.7902C10.2054 11.3763 9.87614 12.1711 9.87614 12.9999C9.87614 13.8287 10.2054 14.6236 10.7914 15.2096C11.3775 15.7957 12.1723 16.1249 13.0011 16.1249C13.8299 16.1249 14.6248 15.7957 15.2108 15.2096C15.7969 14.6236 16.1261 13.8287 16.1261 12.9999C16.1261 12.1711 15.7969 11.3763 15.2108 10.7902C14.6248 10.2042 13.8299 9.87492 13.0011 9.87492ZM13.0011 7.79159C14.3825 7.79159 15.7072 8.34032 16.684 9.31707C17.6607 10.2938 18.2095 11.6186 18.2095 12.9999C18.2095 14.3813 17.6607 15.706 16.684 16.6828C15.7072 17.6595 14.3825 18.2083 13.0011 18.2083C11.6198 18.2083 10.295 17.6595 9.31829 16.6828C8.34154 15.706 7.79281 14.3813 7.79281 12.9999C7.79281 11.6186 8.34154 10.2938 9.31829 9.31707C10.295 8.34032 11.6198 7.79159 13.0011 7.79159ZM19.772 7.53117C19.772 7.8765 19.6348 8.20769 19.3906 8.45188C19.1464 8.69607 18.8152 8.83325 18.4699 8.83325C18.1246 8.83325 17.7934 8.69607 17.5492 8.45188C17.305 8.20769 17.1678 7.8765 17.1678 7.53117C17.1678 7.18583 17.305 6.85464 17.5492 6.61046C17.7934 6.36627 18.1246 6.22909 18.4699 6.22909C18.8152 6.22909 19.1464 6.36627 19.3906 6.61046C19.6348 6.85464 19.772 7.18583 19.772 7.53117ZM13.0011 4.66659C10.4241 4.66659 10.0032 4.67388 8.80426 4.727C7.9876 4.76554 7.43968 4.87492 6.93135 5.07284C6.50595 5.22902 6.12136 5.47936 5.80635 5.80513C5.48031 6.12013 5.22963 6.50469 5.07301 6.93013C4.8751 7.44054 4.76572 7.98742 4.72822 8.80304C4.67406 9.95304 4.66676 10.3551 4.66676 12.9999C4.66676 15.578 4.67406 15.9978 4.72718 17.1968C4.76572 18.0124 4.8751 18.5614 5.07197 19.0687C5.24906 19.5218 5.45739 19.8478 5.80322 20.1937C6.15426 20.5437 6.48031 20.753 6.92822 20.926C7.44281 21.1249 7.99072 21.2353 8.80322 21.2728C9.95322 21.327 10.3553 21.3333 13.0001 21.3333C15.5782 21.3333 15.998 21.326 17.197 21.2728C18.0116 21.2343 18.5595 21.1249 19.0688 20.928C19.4939 20.7711 19.8783 20.5209 20.1938 20.1958C20.5449 19.8458 20.7543 19.5197 20.9272 19.0708C21.1251 18.5583 21.2355 18.0103 21.273 17.1958C21.3272 16.0468 21.3334 15.6437 21.3334 12.9999C21.3334 10.4228 21.3261 10.002 21.273 8.80304C21.2345 7.98846 21.1241 7.43846 20.9272 6.93013C20.7702 6.50514 20.5199 6.12073 20.1949 5.80513C19.88 5.47892 19.4954 5.22822 19.0699 5.07179C18.5595 4.87388 18.0116 4.7645 17.197 4.727C16.048 4.67284 15.647 4.66659 13.0011 4.66659ZM13.0011 2.58325C15.8313 2.58325 16.1845 2.59367 17.2959 2.64575C18.4043 2.69784 19.1605 2.87179 19.8241 3.13013C20.5116 3.39471 21.0907 3.75304 21.6699 4.33117C22.1996 4.85189 22.6094 5.48178 22.8709 6.177C23.1282 6.84054 23.3032 7.59679 23.3553 8.70617C23.4043 9.81658 23.4178 10.1697 23.4178 12.9999C23.4178 15.8301 23.4074 16.1833 23.3553 17.2937C23.3032 18.403 23.1282 19.1583 22.8709 19.8228C22.6101 20.5184 22.2002 21.1485 21.6699 21.6687C21.149 22.1982 20.5192 22.608 19.8241 22.8697C19.1605 23.127 18.4043 23.302 17.2959 23.3541C16.1845 23.403 15.8313 23.4166 13.0011 23.4166C10.1709 23.4166 9.81781 23.4062 8.70635 23.3541C7.59801 23.302 6.84281 23.127 6.17822 22.8697C5.48273 22.6087 4.85273 22.1988 4.33239 21.6687C3.80263 21.148 3.39276 20.5181 3.13135 19.8228C2.87301 19.1593 2.69906 18.403 2.64697 17.2937C2.59697 16.1833 2.58447 15.8301 2.58447 12.9999C2.58447 10.1697 2.59489 9.81658 2.64697 8.70617C2.69906 7.59575 2.87301 6.84158 3.13135 6.177C3.39201 5.48136 3.80198 4.85129 4.33239 4.33117C4.85288 3.8012 5.48284 3.3913 6.17822 3.13013C6.84176 2.87179 7.59697 2.69784 8.70635 2.64575C9.81781 2.59679 10.1709 2.58325 13.0011 2.58325Z"
        fill="#ABABAB"
    />
</svg>