<svg
    xmlns="http://www.w3.org/2000/svg"
    width="26"
    height="26"
    viewBox="0 0 26 26"
    fill="none"
    >
    <path
        d="M23.9375 12.9316C23.9375 12.8779 23.9375 12.8169 23.9351 12.7461C23.9326 12.5483 23.9277 12.3262 23.9229 12.0894C23.9033 11.4082 23.8691 10.7295 23.8154 10.0898C23.7422 9.2085 23.6348 8.47363 23.4883 7.92187C23.3337 7.34607 23.0307 6.82092 22.6095 6.39892C22.1884 5.97692 21.6639 5.67284 21.0884 5.51709C20.3975 5.33154 19.0449 5.2168 17.1406 5.146C16.2349 5.11182 15.2656 5.08984 14.2964 5.07764C13.957 5.07275 13.6421 5.07031 13.3589 5.06787H12.6411C12.3579 5.07031 12.043 5.07275 11.7036 5.07764C10.7344 5.08984 9.76514 5.11182 8.85937 5.146C6.95508 5.21924 5.6001 5.33398 4.91162 5.51709C4.33594 5.67246 3.8112 5.9764 3.39 6.39847C2.9688 6.82053 2.66592 7.34588 2.51172 7.92187C2.36279 8.47363 2.25781 9.2085 2.18457 10.0898C2.13086 10.7295 2.09668 11.4082 2.07715 12.0894C2.06982 12.3262 2.06738 12.5483 2.06494 12.7461C2.06494 12.8169 2.0625 12.8779 2.0625 12.9316V13.0684C2.0625 13.1221 2.0625 13.1831 2.06494 13.2539C2.06738 13.4517 2.07227 13.6738 2.07715 13.9106C2.09668 14.5918 2.13086 15.2705 2.18457 15.9102C2.25781 16.7915 2.36523 17.5264 2.51172 18.0781C2.82422 19.2476 3.74219 20.1704 4.91162 20.4829C5.6001 20.6685 6.95508 20.7832 8.85937 20.854C9.76514 20.8882 10.7344 20.9102 11.7036 20.9224C12.043 20.9272 12.3579 20.9297 12.6411 20.9321H13.3589C13.6421 20.9297 13.957 20.9272 14.2964 20.9224C15.2656 20.9102 16.2349 20.8882 17.1406 20.854C19.0449 20.7808 20.3999 20.666 21.0884 20.4829C22.2578 20.1704 23.1758 19.25 23.4883 18.0781C23.6372 17.5264 23.7422 16.7915 23.8154 15.9102C23.8691 15.2705 23.9033 14.5918 23.9229 13.9106C23.9302 13.6738 23.9326 13.4517 23.9351 13.2539C23.9351 13.1831 23.9375 13.1221 23.9375 13.0684V12.9316ZM22.1797 13.0586C22.1797 13.1099 22.1797 13.166 22.1772 13.2319C22.1748 13.4224 22.1699 13.6323 22.165 13.8594C22.1479 14.5088 22.1138 15.1582 22.0625 15.7612C21.9966 16.5474 21.9038 17.1919 21.7891 17.624C21.6377 18.188 21.1934 18.6348 20.6318 18.7837C20.1191 18.9204 18.8276 19.0303 17.0723 19.0962C16.1836 19.1304 15.2266 19.1523 14.272 19.1646C13.9375 19.1694 13.6274 19.1719 13.3491 19.1719H12.6509L11.728 19.1646C10.7734 19.1523 9.81885 19.1304 8.92773 19.0962C7.17236 19.0278 5.87842 18.9204 5.36816 18.7837C4.80664 18.6323 4.3623 18.188 4.21094 17.624C4.09619 17.1919 4.00342 16.5474 3.9375 15.7612C3.88623 15.1582 3.85449 14.5088 3.83496 13.8594C3.82764 13.6323 3.8252 13.4199 3.82275 13.2319C3.82275 13.166 3.82031 13.1074 3.82031 13.0586V12.9414C3.82031 12.8901 3.82031 12.834 3.82275 12.7681C3.8252 12.5776 3.83008 12.3677 3.83496 12.1406C3.85205 11.4912 3.88623 10.8418 3.9375 10.2388C4.00342 9.45264 4.09619 8.80811 4.21094 8.37598C4.3623 7.81201 4.80664 7.36523 5.36816 7.21631C5.88086 7.07959 7.17236 6.96973 8.92773 6.90381C9.81641 6.86963 10.7734 6.84766 11.728 6.83545C12.0625 6.83057 12.3726 6.82813 12.6509 6.82813H13.3491L14.272 6.83545C15.2266 6.84766 16.1812 6.86963 17.0723 6.90381C18.8276 6.97217 20.1216 7.07959 20.6318 7.21631C21.1934 7.36768 21.6377 7.81201 21.7891 8.37598C21.9038 8.80811 21.9966 9.45264 22.0625 10.2388C22.1138 10.8418 22.1455 11.4912 22.165 12.1406C22.1724 12.3677 22.1748 12.5801 22.1772 12.7681C22.1772 12.834 22.1797 12.8926 22.1797 12.9414V13.0586ZM10.8271 16.2715L16.4912 12.9756L10.8271 9.72852V16.2715Z"
        fill="#ABABAB"
    />
</svg>