<svg width="30" height="30" viewBox="0 0 30 30" fill="none" xmlns="http://www.w3.org/2000/svg">
<circle cx="15" cy="15" r="15" fill="#D9D9D9"/>
<mask id="mask0_78_484" style="mask-type:alpha" maskUnits="userSpaceOnUse" x="3" y="3" width="24" height="24">
<rect x="3" y="3" width="24" height="24" fill="#D9D9D9"/>
</mask>
<g mask="url(#mask0_78_484)">
<path d="M15 15C13.9 15 12.9583 14.6083 12.175 13.825C11.3917 13.0417 11 12.1 11 11C11 9.9 11.3917 8.95833 12.175 8.175C12.9583 7.39167 13.9 7 15 7C16.1 7 17.0417 7.39167 17.825 8.175C18.6083 8.95833 19 9.9 19 11C19 12.1 18.6083 13.0417 17.825 13.825C17.0417 14.6083 16.1 15 15 15ZM7 23V20.2C7 19.6333 7.14583 19.1125 7.4375 18.6375C7.72917 18.1625 8.11667 17.8 8.6 17.55C9.63333 17.0333 10.6833 16.6458 11.75 16.3875C12.8167 16.1292 13.9 16 15 16C16.1 16 17.1833 16.1292 18.25 16.3875C19.3167 16.6458 20.3667 17.0333 21.4 17.55C21.8833 17.8 22.2708 18.1625 22.5625 18.6375C22.8542 19.1125 23 19.6333 23 20.2V23H7ZM9 21H21V20.2C21 20.0167 20.9542 19.85 20.8625 19.7C20.7708 19.55 20.65 19.4333 20.5 19.35C19.6 18.9 18.6917 18.5625 17.775 18.3375C16.8583 18.1125 15.9333 18 15 18C14.0667 18 13.1417 18.1125 12.225 18.3375C11.3083 18.5625 10.4 18.9 9.5 19.35C9.35 19.4333 9.22917 19.55 9.1375 19.7C9.04583 19.85 9 20.0167 9 20.2V21ZM15 13C15.55 13 16.0208 12.8042 16.4125 12.4125C16.8042 12.0208 17 11.55 17 11C17 10.45 16.8042 9.97917 16.4125 9.5875C16.0208 9.19583 15.55 9 15 9C14.45 9 13.9792 9.19583 13.5875 9.5875C13.1958 9.97917 13 10.45 13 11C13 11.55 13.1958 12.0208 13.5875 12.4125C13.9792 12.8042 14.45 13 15 13Z" fill="#7C7984"/>
</g>
</svg>
