<svg
        xmlns="http://www.w3.org/2000/svg"
        width="26"
        height="26"
        viewBox="0 0 26 26"
        fill="none"
      >
        <g clip-path="url(#clip0_436_807)">
          <path
            d="M17.0125 9.85521H12.2333V0.5H17.0125C19.5916 0.5 21.6895 2.59792 21.6895 5.17708C21.6895 7.75625 19.5916 9.85521 17.0125 9.85521ZM13.7656 8.32292H17.0125C18.7468 8.32292 20.1572 6.91146 20.1572 5.17813C20.1572 3.44479 18.7458 2.03333 17.0125 2.03333H13.7656V8.32292ZM13.7656 9.85521H8.98745C6.40828 9.85521 4.31037 7.75729 4.31037 5.17813C4.31037 2.59896 6.40828 0.5 8.98745 0.5H13.7666V9.85521H13.7656ZM8.98745 2.03229C7.25308 2.03229 5.84266 3.44375 5.84266 5.17708C5.84266 6.91042 7.25308 8.32292 8.98745 8.32292H12.2343V2.03229H8.98745ZM13.7656 17.6771H8.98745C6.40828 17.6771 4.31037 15.5792 4.31037 13C4.31037 10.4208 6.40828 8.32292 8.98745 8.32292H13.7666V17.6771H13.7656ZM8.98745 9.85521C7.25308 9.85521 5.84266 11.2667 5.84266 13C5.84266 14.7333 7.25412 16.1448 8.98745 16.1448H12.2343V9.85521H8.98745ZM9.01245 25.5C6.41974 25.5 4.30933 23.4021 4.30933 20.8229C4.30933 18.2437 6.40724 16.1458 8.98641 16.1458H13.7656V20.7719C13.7656 23.3792 11.6333 25.5 9.01245 25.5ZM8.98745 17.6771C8.15374 17.6782 7.35449 18.0099 6.76496 18.5994C6.17544 19.1889 5.84376 19.9882 5.84266 20.8219C5.84266 22.5562 7.26453 23.9667 9.01349 23.9667C10.7895 23.9667 12.2354 22.5333 12.2354 20.7708V17.6771H8.98745ZM17.0125 17.6771H16.9104C14.3312 17.6771 12.2333 15.5792 12.2333 13C12.2333 10.4208 14.3312 8.32292 16.9104 8.32292H17.0125C19.5916 8.32292 21.6895 10.4208 21.6895 13C21.6895 15.5792 19.5916 17.6771 17.0125 17.6771ZM16.9114 9.85521C15.177 9.85521 13.7666 11.2667 13.7666 13C13.7666 14.7333 15.1781 16.1448 16.9114 16.1448H17.0135C18.7479 16.1448 20.1583 14.7333 20.1583 13C20.1583 11.2667 18.7458 9.85521 17.0125 9.85521H16.9114Z"
            fill="#ABABAB"
          />
        </g>
        <defs>
          <clipPath id="clip0_436_807">
            <rect
              width="25"
              height="25"
              fill="white"
              transform="translate(0.5 0.5)"
            />
          </clipPath>
        </defs>
      </svg>