<svg
    xmlns="http://www.w3.org/2000/svg"
    width="26"
    height="26"
    viewBox="0 0 26 26"
    fill="none"
    >
    <path
        d="M12.9999 2.58325C11.632 2.58325 10.2774 2.85269 9.01363 3.37617C7.74982 3.89966 6.6015 4.66695 5.63422 5.63422C3.68072 7.58773 2.58325 10.2372 2.58325 12.9999C2.58325 17.6041 5.57284 21.5103 9.70825 22.8958C10.2291 22.9791 10.3958 22.6562 10.3958 22.3749V20.6145C7.51034 21.2395 6.89575 19.2187 6.89575 19.2187C6.41658 18.0103 5.7395 17.6874 5.7395 17.6874C4.79159 17.0416 5.81242 17.0624 5.81242 17.0624C6.85409 17.1353 7.40617 18.1353 7.40617 18.1353C8.31242 19.7187 9.84367 19.2499 10.4374 18.9999C10.5312 18.3228 10.802 17.8645 11.0937 17.6041C8.78117 17.3437 6.35409 16.4478 6.35409 12.4791C6.35409 11.3228 6.74992 10.3958 7.427 9.65617C7.32284 9.39575 6.95825 8.31242 7.53117 6.90617C7.53117 6.90617 8.40617 6.62492 10.3958 7.96867C11.2187 7.7395 12.1145 7.62492 12.9999 7.62492C13.8853 7.62492 14.7812 7.7395 15.6041 7.96867C17.5937 6.62492 18.4687 6.90617 18.4687 6.90617C19.0416 8.31242 18.677 9.39575 18.5728 9.65617C19.2499 10.3958 19.6458 11.3228 19.6458 12.4791C19.6458 16.4583 17.2083 17.3333 14.8853 17.5937C15.2603 17.9166 15.6041 18.552 15.6041 19.5208V22.3749C15.6041 22.6562 15.7708 22.9895 16.302 22.8958C20.4374 21.4999 23.4166 17.6041 23.4166 12.9999C23.4166 11.632 23.1472 10.2774 22.6237 9.01363C22.1002 7.74982 21.3329 6.6015 20.3656 5.63422C19.3983 4.66695 18.25 3.89966 16.9862 3.37617C15.7224 2.85269 14.3679 2.58325 12.9999 2.58325Z"
        fill="#ABABAB"
    />
</svg>